<svg xmlns="http://www.w3.org/2000/svg" width="55" height="55" viewBox="0 0 55 55"><g id="Network" transform="translate(0 -0.101)"><circle id="Oval-3" cx="27.5" cy="27.5" r="27.5" transform="translate(0 0.101)" fill="#b6ccf9"></circle><path id="Shape-5" d="M16.792,37.125a3.325,3.325,0,1,1,3.25-3.324A3.291,3.291,0,0,1,16.792,37.125Zm14.625-5.541a4.389,4.389,0,0,1-4.333-4.433,4.54,4.54,0,0,1,.154-1.175l-10.382-5.31L7.473,26.774a4,4,0,0,1,.11.932,3.84,3.84,0,0,1-3.792,3.878,3.88,3.88,0,0,1,0-7.757,3.736,3.736,0,0,1,2.58,1.036l8.581-5.586L6.512,12.144a4.258,4.258,0,0,1-2.179.6A4.389,4.389,0,0,1,0,8.312,4.389,4.389,0,0,1,4.333,3.879,4.389,4.389,0,0,1,8.667,8.312a4.506,4.506,0,0,1-.608,2.265l8.291,7.006L22.344,7.123a4.173,4.173,0,0,1-1.219-2.968,4.064,4.064,0,1,1,8.125,0,4.115,4.115,0,0,1-4.062,4.156,3.977,3.977,0,0,1-.949-.114l-6.1,10.646L28.32,24.051a4.254,4.254,0,0,1,3.1-1.333,4.434,4.434,0,0,1,0,8.865Z" transform="translate(10.694 9.038)" fill="#79a0ee"></path><circle id="Oval-4" data-name="Oval-4" cx="6.875" cy="6.875" r="6.875" transform="translate(20.275 21.774)" fill="#4577d8"></circle></g></svg>