<svg xmlns="http://www.w3.org/2000/svg" width="58" height="58" viewBox="0 0 58 58"><g id="Help" transform="translate(0 0)"><circle id="Oval-2" cx="29" cy="29" r="29" transform="translate(0 0)" fill="#ffe0ab"></circle><path id="Shape-3" d="M18.422,36.975A18.517,18.517,0,0,1,11.2,35.527a18.373,18.373,0,0,1-9.766-9.715A17.854,17.854,0,0,1,0,18.79,18.9,18.9,0,0,1,5.346,5.453,18.155,18.155,0,0,1,18.422,0a16.92,16.92,0,0,1,6.883,1.458,17.805,17.805,0,0,1,5.673,4,18.742,18.742,0,0,1,3.852,5.966,19.55,19.55,0,0,1,1.42,7.371,18.013,18.013,0,0,1-1.42,7.021A18.456,18.456,0,0,1,30.978,31.6a18.06,18.06,0,0,1-5.673,3.929A17.07,17.07,0,0,1,18.422,36.975Zm-.3-27.153a8.358,8.358,0,0,0-6.008,2.538,8.789,8.789,0,0,0,0,12.255,8.379,8.379,0,0,0,12.015,0,8.789,8.789,0,0,0,0-12.255A8.357,8.357,0,0,0,18.125,9.822Z" transform="translate(10.5 10.15)" fill="#fbc774"></path><path id="Shape-4" data-name="Shape-4" d="M18.642,37a19.338,19.338,0,0,1-6.092-1.026.672.672,0,0,1-.353-.646l1.042-9.375a.49.49,0,0,1,.249-.375,8.676,8.676,0,0,0,10.025,0,.48.48,0,0,1,.248.375L24.8,35.328a.683.683,0,0,1-.438.682A18.88,18.88,0,0,1,18.642,37ZM35.388,24.805a.539.539,0,0,1-.059,0l-9.375-1.041a.48.48,0,0,1-.375-.248,8.676,8.676,0,0,0,0-10.025.49.49,0,0,1,.375-.249L35.328,12.2a.561.561,0,0,1,.061,0,.684.684,0,0,1,.584.356A19.338,19.338,0,0,1,37,18.642a18.878,18.878,0,0,1-.99,5.722A.687.687,0,0,1,35.388,24.805Zm-33.775,0a.686.686,0,0,1-.622-.441A18.875,18.875,0,0,1,0,18.642a19.18,19.18,0,0,1,1.041-6.119.682.682,0,0,1,.57-.329.561.561,0,0,1,.061,0l9.374,1.042a.49.49,0,0,1,.376.25,8.677,8.677,0,0,0,0,10.023.478.478,0,0,1-.376.249L1.672,24.8A.54.54,0,0,1,1.612,24.805ZM13.489,11.422h0a.49.49,0,0,1-.249-.376L12.2,1.672a.68.68,0,0,1,.326-.631A19.18,19.18,0,0,1,18.642,0a18.873,18.873,0,0,1,5.722.99.682.682,0,0,1,.438.682l-1.041,9.374a.479.479,0,0,1-.249.376,8.677,8.677,0,0,0-10.022,0Z" transform="translate(10 10)" fill="#f5a623"></path></g></svg>