<svg xmlns="http://www.w3.org/2000/svg" id="Notes" width="59" height="59" viewBox="0 0 59 59"><circle id="Oval-1" cx="29.5" cy="29.5" r="29.5" fill="#b7eef5"></circle><path id="Combined_Shape-25" data-name="Combined Shape" d="M0,22.054A2.323,2.323,0,0,0,2.322,24.38H20.9a2.326,2.326,0,0,0,2.322-2.327V2.327A2.323,2.323,0,0,0,20.9,0H2.322A2.326,2.326,0,0,0,0,2.327Z" transform="translate(14.225 20.166)" fill="#008aba"></path><path id="Combined_Shape-26" data-name="Combined Shape" d="M23.219,2.327A2.323,2.323,0,0,0,20.9,0H2.322A2.326,2.326,0,0,0,0,2.327V22.054A2.323,2.323,0,0,0,2.322,24.38H20.9a2.326,2.326,0,0,0,2.322-2.327Z" transform="translate(21.337 14.235)" fill="#6abbd7"></path><path id="Shape-12" d="M9.237,11.8H1.152a1.18,1.18,0,0,1,0-2.36H9.237a1.18,1.18,0,0,1,0,2.36Zm-.58-4.72h-7.5a1.18,1.18,0,0,1,0-2.36h7.5a1.18,1.18,0,0,1,0,2.36ZM12.12,2.36H1.155A1.169,1.169,0,0,1,0,1.18,1.169,1.169,0,0,1,1.155,0H12.12a1.169,1.169,0,0,1,1.155,1.18A1.169,1.169,0,0,1,12.12,2.36Z" transform="translate(26.236 18.73)" fill="#b7eef5"></path></svg>